<?xml version="1.0" standalone="no"?>
<!DOCTYPE svg PUBLIC "-//W3C//DTD SVG 20010904//EN"
 "http://www.w3.org/TR/2001/REC-SVG-20010904/DTD/svg10.dtd">
<svg version="1.0" xmlns="http://www.w3.org/2000/svg"
 width="250.000000pt" height="228.000000pt" viewBox="0 0 250.000000 228.000000"
 preserveAspectRatio="xMidYMid meet">

<g transform="translate(0.000000,228.000000) scale(0.100000,-0.100000)"
fill="#000000" stroke="none">
<path d="M1946 2221 c-21 -23 -36 -112 -36 -212 0 -42 -2 -78 -5 -81 -3 -3
-19 7 -36 23 -60 56 -139 50 -194 -13 -52 -62 -70 -124 -70 -248 0 -134 19
-194 84 -261 42 -44 52 -49 90 -49 49 0 74 11 118 52 30 29 31 29 38 9 16 -53
92 -64 117 -18 18 34 21 742 2 778 -22 43 -78 53 -108 20z m-85 -450 c37 -37
39 -42 39 -103 0 -54 -4 -68 -22 -86 -31 -29 -70 -42 -90 -31 -40 22 -57 184
-25 233 24 36 53 33 98 -13z"/>
<path d="M508 2199 c-119 -18 -257 -74 -285 -115 -16 -25 -18 -55 -22 -243 -5
-340 28 -475 110 -454 32 9 52 72 57 180 l5 102 78 37 c94 44 140 88 141 134
2 46 -24 63 -88 58 -28 -3 -70 -14 -92 -25 l-42 -20 0 48 c0 45 2 50 33 62
132 57 209 116 220 173 11 58 -22 76 -115 63z"/>
<path d="M765 1982 c-86 -56 -133 -148 -142 -282 -15 -215 103 -366 262 -336
152 29 232 331 139 524 -37 76 -81 106 -163 110 -52 2 -72 -1 -96 -16z m116
-172 c52 -70 39 -272 -18 -294 -55 -21 -101 128 -73 234 24 90 54 110 91 60z"/>
<path d="M1238 1971 c-90 -57 -145 -228 -120 -372 26 -152 103 -239 213 -239
118 0 203 114 224 301 8 73 -17 190 -53 249 -57 92 -173 119 -264 61z m126
-146 c23 -23 36 -81 36 -157 0 -142 -64 -207 -105 -106 -23 59 -29 118 -16
179 19 89 50 119 85 84z"/>
<path d="M272 1119 c-96 -48 -184 -171 -185 -260 -1 -44 5 -57 52 -121 28 -40
61 -92 72 -115 26 -55 16 -79 -66 -164 -35 -36 -67 -78 -70 -92 -21 -83 54
-123 144 -78 99 51 193 192 193 290 -1 60 -19 98 -86 175 -42 49 -51 65 -51
98 0 34 7 45 46 81 25 23 62 55 82 70 46 35 50 76 11 112 -34 31 -84 33 -142
4z"/>
<path d="M2176 935 c-54 -19 -102 -69 -139 -145 -30 -61 -32 -71 -32 -175 0
-119 15 -168 72 -236 54 -64 151 -87 229 -54 92 38 169 139 145 191 -17 38
-62 36 -129 -7 -51 -32 -96 -37 -130 -13 -33 23 -27 41 15 49 115 21 213 130
213 235 0 48 -17 85 -57 121 -51 48 -116 59 -187 34z m98 -141 c21 -20 20 -36
-3 -66 -19 -24 -97 -55 -109 -44 -12 12 34 101 58 113 32 16 35 16 54 -3z"/>
<path d="M1721 929 c-51 -15 -124 -95 -150 -164 -61 -162 -37 -353 53 -432 53
-48 105 -58 173 -37 67 21 117 68 134 123 10 34 9 44 -5 66 -23 36 -61 32
-115 -10 -24 -19 -52 -35 -62 -35 -34 0 -54 47 -54 130 0 65 4 85 30 136 44
85 84 86 85 2 0 -27 6 -41 22 -52 33 -23 56 -20 90 15 29 29 30 33 24 91 -14
139 -100 202 -225 167z"/>
<path d="M1180 917 c-118 -33 -189 -129 -132 -180 27 -24 52 -21 105 13 84 53
157 34 157 -40 0 -24 -5 -27 -59 -38 -212 -44 -305 -204 -186 -318 25 -25 56
-44 77 -48 38 -7 114 12 155 39 21 14 27 15 34 4 5 -8 9 -19 9 -26 0 -18 41
-43 71 -43 59 0 85 85 76 250 -7 124 -21 196 -52 265 -45 103 -148 151 -255
122z m138 -390 c3 -31 -1 -38 -28 -52 -35 -18 -101 -17 -108 3 -5 17 61 79 90
85 37 7 43 2 46 -36z"/>
<path d="M537 892 c-42 -46 -50 -98 -55 -347 -7 -423 24 -580 108 -535 38 21
51 65 57 201 3 71 10 132 15 135 4 3 8 1 8 -5 0 -16 70 -34 116 -28 90 10 152
94 175 236 22 134 -18 291 -85 332 -57 35 -168 19 -222 -32 l-21 -20 -13 31
c-20 49 -56 62 -83 32z m259 -183 c15 -17 19 -36 18 -90 -1 -92 -23 -124 -83
-123 -67 1 -82 23 -79 113 3 73 4 76 37 98 42 29 82 29 107 2z"/>
</g>
</svg>
