<?xml version="1.0" standalone="no"?>
<!DOCTYPE svg PUBLIC "-//W3C//DTD SVG 20010904//EN"
 "http://www.w3.org/TR/2001/REC-SVG-20010904/DTD/svg10.dtd">
<svg version="1.0" xmlns="http://www.w3.org/2000/svg"
 width="1255.000000pt" height="293.000000pt" viewBox="0 0 1255.000000 293.000000"
 preserveAspectRatio="xMidYMid meet">

<g transform="translate(0.000000,293.000000) scale(0.100000,-0.100000)"
fill="#000000" stroke="none">
<path d="M970 2664 c-170 -22 -332 -71 -442 -135 -159 -93 -177 -126 -213
-399 -45 -345 -73 -962 -56 -1231 13 -203 25 -289 53 -384 25 -88 58 -153 93
-185 25 -24 33 -25 123 -23 236 6 478 88 694 234 127 86 314 275 400 404 171
258 250 508 249 790 0 216 -43 396 -132 550 -103 181 -280 316 -472 360 -66
15 -239 26 -297 19z m166 -659 c70 -40 117 -93 160 -180 32 -65 38 -88 42
-160 5 -98 -5 -148 -54 -259 -50 -113 -135 -240 -214 -317 -73 -72 -173 -129
-226 -129 -28 0 -35 5 -41 28 -5 15 -8 180 -8 367 0 345 11 504 41 604 14 47
18 52 62 66 74 23 178 15 238 -20z"/>
<path d="M3905 2656 c-36 -16 -97 -81 -123 -133 -46 -89 -82 -267 -82 -398 l0
-63 -67 -12 c-259 -44 -396 -144 -373 -272 10 -54 38 -88 95 -118 40 -20 66
-25 152 -28 65 -3 103 -8 103 -15 0 -6 -7 -94 -16 -196 -12 -141 -15 -258 -11
-481 6 -333 14 -388 73 -501 65 -124 169 -192 340 -224 110 -21 301 -17 385 9
80 24 159 74 194 124 26 38 30 52 30 111 0 83 -25 143 -72 172 -32 20 -42 21
-177 14 -130 -7 -147 -6 -175 11 -44 26 -81 84 -97 151 -22 94 -19 174 26 658
18 186 10 171 97 185 260 42 419 163 370 282 -37 89 -152 138 -324 138 -89 0
-104 2 -99 15 21 56 38 200 34 290 -7 140 -47 230 -122 276 -36 22 -116 25
-161 5z"/>
<path d="M7910 2659 c-58 -24 -122 -110 -157 -213 -28 -82 -53 -234 -53 -322
l0 -62 -67 -12 c-199 -34 -353 -118 -370 -201 -5 -27 -9 -23 -48 58 -101 207
-258 293 -483 265 -140 -17 -238 -67 -347 -176 -45 -45 -99 -108 -120 -141
-205 -322 -263 -796 -144 -1160 82 -248 247 -417 447 -456 332 -64 731 253
680 541 -15 84 -79 140 -159 140 -68 0 -83 -8 -192 -104 -116 -102 -141 -116
-202 -116 -35 0 -52 6 -70 24 -91 91 -123 339 -71 551 63 255 178 425 261 387
38 -17 55 -69 55 -162 0 -119 40 -186 125 -209 76 -20 167 9 223 74 62 69 67
88 66 225 l0 125 29 -27 c40 -38 115 -58 215 -58 l85 0 -6 -67 c-23 -242 -29
-406 -24 -648 5 -294 16 -364 72 -477 78 -154 261 -238 519 -238 323 1 491
143 418 355 -12 35 -27 56 -52 73 -34 23 -39 24 -175 17 -156 -7 -177 -3 -224
47 -71 76 -81 184 -52 533 19 218 39 408 44 411 1 1 45 9 97 18 291 53 438
208 312 330 -59 58 -127 79 -267 84 l-121 4 18 86 c47 229 4 426 -106 493 -34
21 -113 25 -156 8z"/>
<path d="M8927 2615 c-82 -30 -137 -100 -137 -173 0 -141 200 -174 339 -56 83
70 83 182 -1 225 -45 23 -144 25 -201 4z"/>
<path d="M2552 2186 c-218 -53 -426 -290 -516 -586 -50 -167 -61 -244 -60
-415 1 -140 4 -172 27 -258 53 -199 169 -392 295 -489 132 -102 212 -131 362
-131 93 0 115 4 191 32 174 65 370 225 438 359 33 66 53 158 44 203 -8 42 -64
96 -113 109 -72 19 -134 -2 -268 -92 -115 -77 -166 -98 -245 -98 -69 0 -125
17 -161 48 -19 17 -55 87 -56 108 0 6 26 14 58 18 81 10 185 42 272 86 281
141 442 416 409 695 -23 191 -183 363 -380 410 -77 18 -224 18 -297 1z m240
-447 c69 -92 26 -198 -107 -263 -55 -26 -204 -70 -213 -62 -6 7 19 116 40 173
22 59 98 149 143 169 49 22 114 14 137 -17z"/>
<path d="M5201 2184 c-122 -33 -264 -140 -356 -268 -93 -131 -167 -322 -201
-521 -22 -125 -15 -359 15 -469 75 -282 243 -499 451 -583 96 -38 208 -49 305
-30 160 33 366 162 469 294 74 94 100 156 100 245 1 74 0 78 -32 111 -54 56
-120 67 -207 35 -16 -7 -77 -42 -135 -79 -135 -86 -168 -99 -247 -99 -95 0
-164 35 -199 102 -28 55 -21 63 62 76 176 28 326 104 454 232 47 47 100 111
118 142 75 127 108 299 83 430 -36 181 -185 334 -376 383 -74 19 -232 19 -304
-1z m256 -459 c42 -75 24 -153 -49 -209 -42 -32 -127 -69 -193 -85 -27 -7 -58
-14 -67 -17 -52 -15 15 198 89 286 37 44 97 71 153 68 40 -3 47 -7 67 -43z"/>
<path d="M11541 2184 c-170 -46 -335 -199 -439 -409 -88 -178 -134 -376 -134
-585 -1 -279 93 -521 272 -700 131 -131 248 -183 415 -184 175 -1 365 90 522
251 100 102 148 198 148 299 0 67 -2 75 -29 103 -78 82 -171 76 -318 -21 -152
-100 -195 -118 -275 -118 -90 0 -159 32 -191 89 -37 65 -31 78 36 86 182 22
381 127 506 266 133 148 202 372 167 541 -38 181 -188 334 -377 383 -73 19
-231 18 -303 -1z m238 -433 c28 -28 45 -92 37 -135 -15 -77 -97 -136 -250
-180 -48 -14 -90 -26 -92 -26 -11 0 -1 68 21 138 27 86 65 146 117 185 55 41
135 50 167 18z"/>
<path d="M8905 2087 c-96 -55 -154 -188 -192 -446 -25 -171 -25 -763 1 -945
28 -200 83 -338 148 -372 42 -22 117 -14 161 16 97 67 153 226 176 505 16 192
24 688 12 810 -21 230 -75 393 -143 435 -45 27 -112 26 -163 -3z"/>
<path d="M9507 2046 c-84 -23 -118 -72 -138 -196 -26 -168 48 -515 198 -930
85 -236 220 -477 328 -585 65 -65 125 -90 194 -82 139 16 239 126 390 427 125
252 319 728 387 955 34 115 40 280 11 333 -38 69 -136 93 -215 53 -130 -66
-311 -370 -482 -808 -41 -106 -78 -193 -81 -193 -13 0 -68 140 -114 286 -25
82 -64 207 -87 279 -119 383 -224 508 -391 461z"/>
</g>
</svg>
