<svg viewBox="0 0 512 512" xml:space="preserve" xmlns="http://www.w3.org/2000/svg"><linearGradient gradientUnits="userSpaceOnUse" id="a" x1="0" x2="512" y1="256" y2="256"><stop offset="0" style="stop-color:#8dc63f"/><stop offset="1" style="stop-color:#76b83f"/></linearGradient><circle cx="256" cy="256" fill="url(#a)" r="256"/><linearGradient gradientUnits="userSpaceOnUse" id="b" x1="42.667" x2="469.333" y1="256.001" y2="256.001"><stop offset="0" style="stop-color:#76b83f"/><stop offset="1" style="stop-color:#8dc63f"/></linearGradient><path d="M256 469.334c-117.631 0-213.333-95.702-213.333-213.333S138.369 42.667 256 42.667c117.636 0 213.333 95.702 213.333 213.334S373.636 469.334 256 469.334z" fill="url(#b)"/><path opacity=".3" d="M184.549 226.995h96.511v9.599h-96.511z"/><path d="m373.812 344.736-67.104-69.313c7.44-13.439 11.184-28.559 11.184-43.631 0-22.464-8.256-44.928-24.816-62.016C276.996 153.168 255.588 144 232.788 144c-22.752 0-44.16 9.168-60.24 25.776-33.12 34.176-33.12 89.856 0 124.032 16.08 16.608 37.488 25.776 60.24 25.776 15.072 0 29.52-3.984 42.24-11.52l66.912 69.12c4.224 4.415 9.888 6.816 15.936 6.816s11.664-2.4 15.936-6.817c8.64-8.927 8.64-23.519 0-32.447zM232.8 303.078c-37.94 0-68.81-31.979-68.81-71.287 0-39.306 30.87-71.285 68.81-71.285 37.943 0 68.813 31.979 68.813 71.285 0 39.308-30.87 71.287-68.813 71.287z" opacity=".3"/><g fill="#FFF"><path d="M176.549 218.995h96.511v9.599h-96.511z"/><path d="m365.812 336.736-67.104-69.313c7.44-13.439 11.184-28.559 11.184-43.631 0-22.464-8.256-44.928-24.816-62.016C268.996 145.168 247.588 136 224.788 136c-22.752 0-44.16 9.168-60.24 25.776-33.12 34.176-33.12 89.856 0 124.032 16.08 16.608 37.488 25.776 60.24 25.776 15.072 0 29.52-3.984 42.24-11.52l66.912 69.12c4.224 4.415 9.888 6.816 15.936 6.816s11.664-2.4 15.936-6.817c8.64-8.927 8.64-23.519 0-32.447zM224.8 295.078c-37.94 0-68.81-31.979-68.81-71.287 0-39.306 30.87-71.285 68.81-71.285 37.943 0 68.813 31.979 68.813 71.285 0 39.308-30.87 71.287-68.813 71.287z"/></g></svg>