<svg viewBox="0 0 128 128" xml:space="preserve" xmlns="http://www.w3.org/2000/svg"><path d="M72.8 111H51.2l-2.1-36.7c-.1-1.2.9-2.3 2.2-2.3h21.4c1.2 0 2.2 1.1 2.2 2.3L72.8 111z" fill="#E875AE"/><path d="M72.8 111H51.2l-2.1-36.7c-.1-1.2.9-2.3 2.2-2.3h21.4c1.2 0 2.2 1.1 2.2 2.3L72.8 111z" fill="none" stroke="#3D3D3D" stroke-miterlimit="10" stroke-width="2"/><path fill="#FFF" d="M53 48h18v24H53z"/><path fill="none" stroke="#3D3D3D" stroke-miterlimit="10" stroke-width="2" d="M53 48h18v24H53z"/><path d="M56 48h12V19.9c0-2.5-1.8-4.9-4.2-4.9h.4c-4.7 0-8.1 4.3-8.1 9v24z" fill="#DD3B86"/><path d="M56 48h12V19.9c0-2.5-1.8-4.9-4.2-4.9h.4c-4.7 0-8.1 4.3-8.1 9v24z" fill="none" stroke="#3D3D3D" stroke-miterlimit="10" stroke-width="2"/></svg>