<?xml version="1.0" encoding="utf-8"?>
<!-- Generator: Adobe Illustrator 16.0.0, SVG Export Plug-In . SVG Version: 6.00 Build 0)  -->
<!DOCTYPE svg PUBLIC "-//W3C//DTD SVG 1.1//EN" "http://www.w3.org/Graphics/SVG/1.1/DTD/svg11.dtd">
<svg version="1.1" id="Layer_1" xmlns="http://www.w3.org/2000/svg" xmlns:xlink="http://www.w3.org/1999/xlink" x="0px" y="0px"
	 width="24px" height="24px" viewBox="0 0 24 24" enable-background="new 0 0 24 24" xml:space="preserve">
<path d="M21.835,17.079c-1.138-2.993-3.735-4.229-3.771-4.246l-0.528-0.193c0.146-3.023,0.091-5.03-0.042-6.358
	C17.497,6.28,17.5,6.28,17.5,6.28c-0.022-0.235-0.054-0.467-0.09-0.694c-0.102-0.699-0.226-1.143-0.338-1.423
	c-0.798-2.497-2.555-4.223-5.049-4.161c-4.981,0.123-5.508,5.32-5.561,6.167c-0.159,1.348-0.247,3.4-0.11,6.509L5.97,12.818
	l-0.035,0.015c-0.034,0.017-2.632,1.253-3.77,4.246c-0.231,0.609-0.402,1.292-0.479,2.053c0.289,0.351,0.596,0.686,0.919,1.005
	c0.345,0.342,0.71,0.662,1.09,0.965c2.277,1.812,5.157,2.896,8.292,2.898c0.011,0,0.021,0,0.03,0c0.218,0,0.435-0.006,0.649-0.016
	c0.012-0.001,0.021-0.001,0.033-0.002c2.867-0.147,5.494-1.203,7.604-2.881c0.381-0.303,0.746-0.623,1.09-0.965
	c0.323-0.319,0.631-0.654,0.92-1.005C22.237,18.371,22.065,17.688,21.835,17.079z M9.676,7.401c1.872-0.787,3.142-1.726,3.999-2.597
	c0.392,0.751,1.031,1.145,1.676,1.345c-0.008,0.134-0.019,0.268-0.031,0.4c-0.002,0.021-0.004,0.043-0.007,0.064
	c-0.003,0.024-0.006,0.049-0.009,0.073c-0.299,2.521-1.508,4.867-3.311,4.867c-1.516,0-2.611-1.659-3.1-3.686
	C9.295,7.562,9.676,7.401,9.676,7.401z M12,15.907c-0.172,0-0.311-0.139-0.311-0.311s0.139-0.311,0.311-0.311
	c0.171,0,0.311,0.139,0.311,0.311S12.171,15.907,12,15.907z M12.311,17.31c0,0.172-0.14,0.311-0.311,0.311
	c-0.172,0-0.311-0.139-0.311-0.311c0-0.171,0.139-0.311,0.311-0.311C12.171,16.999,12.311,17.139,12.311,17.31z M12,13.258
	c-0.548-0.227-1.009-0.6-1.376-0.986c0.414,0.202,0.867,0.316,1.361,0.316c0.523,0,1.004-0.135,1.443-0.373
	C13.054,12.621,12.575,13.021,12,13.258z M14.921,11.845c0.008,0.012,0.016,0.023,0.023,0.032l0.176,2.922l-1.725-1.252
	C14.105,13.005,14.614,12.327,14.921,11.845z M9.046,11.792c0.301,0.483,0.818,1.188,1.551,1.75l-1.732,1.257L9.046,11.792z
	 M19.113,19.999c0.03-0.997,0.04-2.267-0.039-3.396l-0.96,0.067c0.097,1.382,0.057,2.989,0.012,4.006
	c-1.783,1.092-3.881,1.723-6.126,1.723c-2.243,0-4.339-0.629-6.122-1.719c-0.047-0.998-0.095-2.589-0.004-3.98l-0.959-0.063
	C4.84,17.778,4.854,19.024,4.888,20c-0.754-0.573-1.436-1.235-2.03-1.971c0.8-2.964,3.218-4.196,3.465-4.315l1.682-0.618
	l-0.221,3.679l3.481-2.53h0.135v4.508h1.201v-4.508h0.119l3.481,2.53l-0.221-3.681l1.697,0.62c0.255,0.123,2.667,1.356,3.464,4.315
	C20.548,18.765,19.866,19.426,19.113,19.999z"/>
</svg>
