<svg xmlns="http://www.w3.org/2000/svg" width="24" height="24" xml:space="preserve"><path d="M21.835 17.079c-1.138-2.993-3.735-4.229-3.771-4.246l-.528-.193c.146-3.023.091-5.03-.042-6.358l.006-.002a10.95 10.95 0 0 0-.09-.694c-.102-.699-.226-1.143-.338-1.423-.798-2.497-2.555-4.223-5.049-4.161-4.981.123-5.508 5.32-5.561 6.167-.159 1.348-.247 3.4-.11 6.509l-.382.14-.035.015c-.034.017-2.632 1.253-3.77 4.246a8.05 8.05 0 0 0-.479 2.053 13.25 13.25 0 0 0 2.009 1.97A13.282 13.282 0 0 0 11.987 24h.03c.218 0 .435-.006.649-.016l.033-.002a13.282 13.282 0 0 0 7.604-2.881 13.263 13.263 0 0 0 2.01-1.97 8.053 8.053 0 0 0-.478-2.052zM9.676 7.401c1.872-.787 3.142-1.726 3.999-2.597.392.751 1.031 1.145 1.676 1.345-.008.134-.019.268-.031.4l-.007.064-.009.073c-.299 2.521-1.508 4.867-3.311 4.867-1.516 0-2.611-1.659-3.1-3.686.402-.305.783-.466.783-.466zM12 15.907a.31.31 0 1 1 0-.621.31.31 0 0 1 0 .621zm.311 1.403a.311.311 0 1 1-.623 0 .311.311 0 0 1 .623 0zM12 13.258c-.548-.227-1.009-.6-1.376-.986.414.202.867.316 1.361.316.523 0 1.004-.135 1.443-.373-.374.406-.853.806-1.428 1.043zm2.921-1.413a.55.55 0 0 0 .023.032l.176 2.922-1.725-1.252c.71-.542 1.219-1.22 1.526-1.702zm-5.875-.053c.301.483.818 1.188 1.551 1.75l-1.732 1.257.181-3.007zm10.067 8.207c.03-.997.04-2.267-.039-3.396l-.96.067c.097 1.382.057 2.989.012 4.006A11.693 11.693 0 0 1 12 22.399a11.7 11.7 0 0 1-6.122-1.719c-.047-.998-.095-2.589-.004-3.98l-.959-.063c-.075 1.141-.061 2.387-.027 3.363a11.727 11.727 0 0 1-2.03-1.971c.8-2.964 3.218-4.196 3.465-4.315l1.682-.618-.221 3.679 3.481-2.53h.135v4.508h1.201v-4.508h.119l3.481 2.53-.221-3.681 1.697.62c.255.123 2.667 1.356 3.464 4.315a11.709 11.709 0 0 1-2.028 1.97z"/></svg>