<svg xmlns="http://www.w3.org/2000/svg" xml:space="preserve" viewBox="0 0 27.162 33.812"><path style="fill-rule:evenodd;fill:#a3793a" d="M20.52 22.088c0-.718.093-2.531.281-5.437.187-3.281.359-5.363.519-6.242.188-1.149.293-2.625.321-4.442.027-1.972-.082-3.117-.321-3.437-.054-.082-.199-.469-.441-1.16-.16-.481-.438-.828-.84-1.043-.48-.239-3.492-.332-9.039-.278C5.508.1 2.281.237 1.32.448.547.608.133 1.303.078 2.53c0 .023.082 1.144.242 3.359l.719 9c.266 1.387.402 3.828.402 7.321 0 .293.332.625 1 1 .344.187.68.347 1 .48l-1.64.398.16 2.961 6.117-.16c2.988 0 7.016-.039 12.082-.121l.32-2.558-.761-.641.402-.398c.266-.348.399-.708.399-1.083z" transform="matrix(1.25 0 0 -1.25 0 33.812)"/><path style="fill-rule:evenodd;fill:#8e6a33" d="m17.48 6.171.161-.321 1.16-3.601c.265-.692.41-1.106.437-1.239.133-.425.121-.695-.039-.8-.133-.106-.734-.172-1.801-.2h-2.679c-.508-.027-1.465 0-2.879.078-1.602.083-2.602.122-3 .122-3.36 0-5.508.082-6.442.242-.773.16-1.16.465-1.16.918l.242.679.321-.359c.32-.238.785-.359 1.398-.359.641 0 2.133.105 4.481.32.508.051.851.254 1.039.598.16.347.308.519.441.519.184.028.492-.023.918-.156a6.147 6.147 0 0 1 1.52-.281c.562-.028 1.015.039 1.359.199.215.082.641.281 1.281.598.559.187.883.535.961 1.043l-.039.679.281-.48c.239-.293.532-.332.879-.121.559.347.946.988 1.16 1.922z" transform="matrix(1.25 0 0 -1.25 0 33.812)"/><path style="fill-rule:evenodd;fill:#c79346" d="M4.52 22.889c.242 0 .679-.066 1.32-.199.668-.133 1.172-.199 1.519-.199.321 0 1.133.051 2.442.16a24.79 24.79 0 0 0 4-.082c.773-.106 2.027-.133 3.758-.078a48.81 48.81 0 0 1-1.278-1.52c-.883-1.148-1.426-2.054-1.64-2.722-.133-.453-.321-1.465-.563-3.039-.211-1.332-.41-2.133-.598-2.399-.16-.215-.839-.375-2.039-.484-1.253-.106-2.043-.317-2.363-.637C7.293 9.823 6.266 8.553 6 7.889c-.105-.347-.535-.64-1.281-.879-.934-.297-1.547-.55-1.84-.761-.399-.293-.891-.922-1.481-1.879L.641 3.049.879 4.53c.027.133.055.746.082 1.84.027 1.039.117 1.812.277 2.32.16.453.242 1.094.242 1.918.028.988.067 1.668.122 2.043.105.531.171 1.785.199 3.758.051 2.187.078 3.336.078 3.441l.16 2.719 2.481.32z" transform="matrix(1.25 0 0 -1.25 0 33.812)"/><path style="fill-rule:evenodd;fill:#694e26" d="M15.762 16.331c.16-1.789.226-2.895.199-3.321-.027-.535-.039-1.441-.039-2.718 0-1.282.012-1.989.039-2.121.027-.106.453-.266 1.281-.481.426-.078.84-.16 1.238-.238-.984-.16-1.601-.375-1.839-.641-.161-.16-.215-.773-.161-1.84.055-.535.106-1.043.161-1.519-1.84.238-3.575.265-5.2.078-.855-.106-1.906-.106-3.16 0-1.148.133-1.84.199-2.082.199-.265 0-.879.149-1.84.442L3 4.651l12.441 15.117.321-3.437z" transform="matrix(1.25 0 0 -1.25 0 33.812)"/><path style="fill-rule:evenodd;fill:#7a5a2b" d="M20.52 22.088c0-.718.093-2.531.281-5.437.187-3.281.359-5.363.519-6.242.188-1.149.293-2.625.321-4.442.027-1.972-.082-3.117-.321-3.437-.054-.082-.199-.469-.441-1.16-.16-.481-.438-.828-.84-1.043-.508-.024-.984 1.054-1.441 3.242-.453 2.16-.586 3.84-.399 5.039.16.883.16 3.215 0 7-.187 3.813-.265 5.789-.238 5.922.051.32.199.652.437 1 .215.32.321.519.321.598 0 .535.226.933.679 1.199.321.187.403.976.243 2.363l.398.078h.121l.32-2.558-.761-.641.402-.398c.266-.348.399-.708.399-1.083z" transform="matrix(1.25 0 0 -1.25 0 33.812)"/><path style="fill-rule:evenodd;fill:#57401f" d="m19.441 23.971.2 1.52v1.199l.32.039.519-2.519-1.039-.239z" transform="matrix(1.25 0 0 -1.25 0 33.812)"/><path style="fill-rule:evenodd;fill:#7a5a2b" d="M4.441 23.409c-.375 0-.961-.121-1.761-.36l-1.039-.32.48.84-.32.519 2.519-.078c1.84-.054 3.121-.054 3.84 0 1.172.106 4.106.133 8.801.078 1.172.055 2.199.028 3.078-.078l-.918-.722c-2.586-.078-4.547-.106-5.879-.078l-8.801.199z" transform="matrix(1.25 0 0 -1.25 0 33.812)"/><path style="fill-rule:evenodd;fill:#694e26" d="m19.559.37-.68-.282h-8.16c-5.547 0-8.68.122-9.399.36C.867.608.508.983.238 1.569L0 2.37l.879-.719c.668-.508 1.226-.789 1.68-.84C3.68.702 4.988.674 6.48.729c.879.027 2.106.094 3.68.199a9.245 9.245 0 0 1 2.481.52c.879.293 1.507.453 1.879.48.933.11 2.042.11 3.32 0L19.559.37z" transform="matrix(1.25 0 0 -1.25 0 33.812)"/><path style="fill-rule:evenodd;fill:#c79346" d="M14.641 26.171c-.934-.028-2.895-.188-5.883-.481l-4.238-.402 5.32-.36c.828.055 3.84-.011 9.039-.199l-6.957-.039c-1.176-.055-3.094-.082-5.762-.082l-3.961-.117v2.359l2.84-.16a133.54 133.54 0 0 1 4.883-.121h7.398c.719 0 1.332.027 1.84.082l.16-.281-4.679-.199z" transform="matrix(1.25 0 0 -1.25 0 33.812)"/><path style="fill-rule:evenodd;fill:#7a5a2b" d="m19.719 25.971.082-1.363-8.563 1.242 8.481.121z" transform="matrix(1.25 0 0 -1.25 0 33.812)"/><path style="fill-rule:evenodd;fill:#d69e4c" d="m19.961 26.729-.801-.398c-2.851.027-5.707.066-8.558.117-5.707.109-8.563.187-8.563.242l-.078.359 18-.32z" transform="matrix(1.25 0 0 -1.25 0 33.812)"/><path style="fill-rule:evenodd;fill:#c28f44" d="m18.121 22.409.078-2.719c.188-1.227.281-2.266.281-3.121V9.288c0-.106-.027-1.067-.082-2.879 0-1.813.055-2.934.161-3.36.16-.668.652-1.574 1.48-2.718l-1.238 1c-.215.16-.403.519-.559 1.078-.054.16-.176.734-.363 1.719-.133.617-.199 1.574-.199 2.882-.024 1.36.043 2.254.199 2.68.133.375.148 1.762.043 4.16-.133 2.481-.199 3.906-.199 4.281l.398 4.278z" transform="matrix(1.25 0 0 -1.25 0 33.812)"/><path style="fill-rule:evenodd;fill:#57401f" d="m18.48 9.288.719-2c.215-.371.348-.598.399-.68.187-.238.468-.48.843-.719.317-.187.344.106.079.879-.321.934-.415 1.481-.282 1.641.27.375.535 1.707.801 4l.16-1c.106-.774.227-1.348.36-1.719.214-.613.226-2.867.039-6.762 0-.238-.157-.73-.477-1.476-.16-.348-.469-.629-.922-.84-.773 1.09-1.32 1.906-1.64 2.437-.215.321-.293 1.454-.239 3.403l.16 2.836zm2.161 13.722c.214-.375.214-1.425 0-3.16l-1.082.84-.2-2.562c-.214 1.414-.425 2.093-.64 2.043-.133-.028-.227-.36-.281-1-.028-.321-.04-.629-.04-.922-.293 1.601-.441 2.695-.441 3.281 0 .375.137.746.402 1.121.106.184.227.344.36.477l-5.801.64 4.281.043c.906.051 1.492.145 1.758.277l1.52.122-.2-.559.364-.641z" transform="matrix(1.25 0 0 -1.25 0 33.812)"/><path style="fill-rule:evenodd;fill:#295224" d="M18.32 7.288c-4.586.187-7.492.281-8.718.281-.774 0-2.524.094-5.243.281l-3.8.278.48 4.882 8.922-.359c2-.133 4.691-.133 8.078 0l2.883 1.961.117-2.203c.133-.613.227-1.281.281-2a32.302 32.302 0 0 1-1.519-1.719c-.188-.266-.492-.586-.918-.961l-.563-.441z" transform="matrix(1.25 0 0 -1.25 0 33.812)"/><path style="fill-rule:evenodd;fill:#1a3317" d="M19.801 8.69a8.244 8.244 0 0 0-1.281-1.242c-.051 1.066-.067 1.68-.04 1.84l-.039 3.64 2.481 1.684.117-2.203c.133-.613.227-1.281.281-2a30.615 30.615 0 0 1-1.519-1.719z" transform="matrix(1.25 0 0 -1.25 0 33.812)"/><path style="fill-rule:evenodd;fill:#baa436" d="m18.199 8.049-17.64.719.281 3.563 17.558-.442 2.524 1.879.316-2.64c-.453-.692-.957-1.25-1.519-1.68l-1.52-1.399z" transform="matrix(1.25 0 0 -1.25 0 33.812)"/><path style="fill-rule:evenodd;fill:#295224" d="m5.48 4.01-2.64.321c.105 4.48.199 7.492.281 9.039l.438 7.039h6.32c1.84 0 3.816-.106 5.922-.321l-.043-3.16c-.024-2.265-.012-3.84.043-4.718.105-1.414.254-4.254.437-8.52-2.664.215-4.785.266-6.359.16-.984-.082-2.453-.027-4.399.16z" transform="matrix(1.25 0 0 -1.25 0 33.812)"/><path style="fill-rule:evenodd;fill:#d6c73e" d="m5.719 4.37-2.481.32c.082 4.293.16 7.172.242 8.641l.399 6.757h6c1.734 0 3.586-.105 5.562-.32l-.043-3c-.027-2.156-.011-3.664.043-4.519.106-1.387.239-4.118.399-8.2-2.508.215-4.492.266-5.961.161-.934-.082-2.32-.028-4.16.16z" transform="matrix(1.25 0 0 -1.25 0 33.812)"/><path style="fill-rule:evenodd;fill:#f0c9a6" d="M4.641 19.491h5.281a45.66 45.66 0 0 0 4.879-.281l-.039-2.801c-.028-2.028-.016-3.426.039-4.199l.359-7.602c-2.215.188-3.961.23-5.238.121-.828-.051-2.043 0-3.641.16l-2.203.282c.082 4 .16 6.679.242 8.039l.321 6.281z" transform="matrix(1.25 0 0 -1.25 0 33.812)"/><path style="fill-rule:evenodd;fill:#c9a98c" d="m14.762 13.69.398-9.082c-2.215.188-3.961.23-5.238.121-.828-.051-2.043 0-3.641.16l-2.203.282.043 1.957c1.492.91 2.691 1.562 3.598 1.96 1.359.563 2.574 1.254 3.64 2.083l3.282 2.48.121.039z" transform="matrix(1.25 0 0 -1.25 0 33.812)"/><path style="fill-rule:evenodd;fill:#baa436" d="m15.48 11.971 2.918-.082-.199-3.84-2.441.079c-.106.507-.16.855-.16 1.043l-.118 2.8z" transform="matrix(1.25 0 0 -1.25 0 33.812)"/><path style="fill-rule:evenodd;fill:#7eb03e" d="M12.641 10.971c.132-.32.16-.668.078-1.043-.106-.425-.36-.8-.758-1.117-.453-.32-1.188-.48-2.199-.48-.989 0-1.617.132-1.883.398-.852.852-1.184 1.574-1 2.16.082.668.187 1.149.32 1.442.266.531.84.879 1.723 1.039.879.16 1.68.093 2.398-.199.348-.133.614-.293.801-.481l.52-1.719z" transform="matrix(1.25 0 0 -1.25 0 33.812)"/><path style="fill-rule:evenodd;fill:#60872c" d="M12.641 9.85c-.11-.562-.176-.867-.2-.922-.109-.16-.453-.316-1.043-.48-.8-.238-1.343-.387-1.64-.438-.481-.109-.906-.121-1.278-.043-.64.137-1.16.563-1.562 1.282-.133.214-.277.347-.438.402l-.242.039 1.121.16c.161.051.332-.109.52-.48.187-.403.508-.586.961-.559.558.024 1.055.36 1.48 1 .399.586.532 1.051.399 1.399-.266.64-.188 1.117.242 1.441.211.133.449.211.719.238v-.121c.027-.133.187-.277.48-.437.508-.27.668-1.094.481-2.481z" transform="matrix(1.25 0 0 -1.25 0 33.812)"/><path style="fill-rule:evenodd;fill:#97d245" d="M10.16 13.288c.906.109.735-.305-.519-1.239-.055-.16-.055-.468 0-.921.027-.344-.067-.586-.282-.719-.187-.106-.332 0-.437.32-.137.399-.375.613-.723.641-.398.027-.664-.149-.801-.52a1.448 1.448 0 0 1-.117-.558 4.771 4.771 0 0 0-.043.679c0 .559.121 1.039.364 1.442.21.398.703.664 1.476.797.375.054.734.078 1.082.078z" transform="matrix(1.25 0 0 -1.25 0 33.812)"/><path style="fill-rule:evenodd;fill:#97d245" d="M10.801 12.889c.16-.187.094-.465-.199-.84-.153-.191-.204-.363-.161-.519-.136.176-.203.351-.203.519 0 .161.094.348.282.559l.281.281z" transform="matrix(1.25 0 0 -1.25 0 33.812)"/><path style="fill-rule:evenodd;fill:#60872c" d="m10.441 13.249-.48-1.239c-.133-.375-.066-.695.199-.961l-.961-.16c0 .16.016.348.039.559.055.43.16.723.321.883l.882.918z" transform="matrix(1.25 0 0 -1.25 0 33.812)"/><path style="stroke:#231f20;stroke-miterlimit:10;stroke-width:.4;fill:none" d="M12.719 16.398c.054-.851-.117-1.398-.52-1.636l-.078-.403c-.32-.293-.789-.519-1.402-.679.027-.028 0-.028-.078 0-.453-.133-1.028-.133-1.719 0-.883.16-1.453.508-1.723 1.039-.133.293-.238.773-.32 1.441-.106.375-.051.746.16 1.121l-.719.078c.215 0 .414.149.602.442.398.719.918 1.144 1.558 1.281.372.078.801.066 1.282-.043.293-.051.84-.199 1.636-.437.536-.161.868-.309 1-.442.082-.082.149-.308.204-.68.132-.32.171-.679.117-1.082z" transform="scale(1.25)"/><path style="fill-rule:evenodd;fill:#e7b153" d="M10.363 9.764c.426-.683.407-1.718-.062-3.105-.067-.168-.043-.285.062-.352L9.18 6.053c-.703-.152-1.258-.191-1.664-.129-.77.106-1.301.5-1.602 1.184-.254.66-.277 1.289-.062 1.887.277.554.437.941.48 1.152.254.363.172.629-.258.801-.254.082-.562.094-.926.031l-.449-.16a.847.847 0 0 0-.062.32c.019.235.16.364.414.383a3.22 3.22 0 0 0 1.25-.191.484.484 0 0 0-.16.191c-.106.191-.098.406.031.641.129.234.301.418.512.543.109.086.203.14.289.16l-.129-.352c-.106-.254-.16-.457-.16-.605.023-.129.023-.356 0-.672.043-.281.277-.406.703-.387.875.067 1.386.074 1.539.031.551-.105 1.031-.476 1.437-1.117z" transform="matrix(1.25 0 0 -1.25 0 33.812)"/><path style="fill-rule:evenodd;fill:#bf8c37" d="M7.516 5.924c-.77.106-1.301.5-1.602 1.184-.316.789-.266 1.598.16 2.43.067.07.125.144.18.226-.09-.511-.074-1 .047-1.472.105-.45.179-.789.222-1.024.024-.023.375-.234 1.055-.64.363-.215.707-.258 1.027-.129.149.086.457.332.926.738.492.402.77.851.832 1.344a1.275 1.275 0 0 0-.062.414c0 .301.074.461.222.48.172-.449.192-1.023.067-1.726a7.053 7.053 0 0 0-.289-1.09c-.067-.168-.043-.285.062-.348L9.18 6.053c-.703-.152-1.258-.195-1.664-.129z" transform="matrix(1.25 0 0 -1.25 0 33.812)"/><path style="fill-rule:evenodd;fill:#d69c3e" d="m6.492 10.53.414-1.18c.387-.812.867-1.324 1.442-1.539.918-.32 1.504-.32 1.761 0a3.192 3.192 0 0 0-.929-1.055c-.789-.574-1.547-.535-2.274.129-.722.661-1.011 1.469-.863 2.43l.449 1.215z" transform="matrix(1.25 0 0 -1.25 0 33.812)"/><path style="fill-rule:evenodd;fill:#bf8c37" d="M9.453 6.549c-1.019-.062-1.773.231-2.258.879-.32.426-.511 1-.574 1.727l-.031.961.156-.93c.215-.723.547-1.289.992-1.695.68-.621 1.25-.938 1.715-.942zm.688.895c.004.203-.039.422-.129.656-.172.598-.5 1.055-.992 1.375-.493.34-.961.598-1.407.77l-.547.16.93-.16c.66-.153 1.152-.344 1.473-.578.496-.352.719-1.094.672-2.223z" transform="matrix(1.25 0 0 -1.25 0 33.812)"/><path style="fill-rule:evenodd;fill:#ffd9a0" d="M8.348 10.499c.277-.02.468-.094.578-.223l-.274.113c.528-.234.832-.547.91-.945-.253 0-.433.012-.542.031l.066-.16c-.449.148-.758.227-.93.227-.019-.192 0-.418.067-.672l-.516.062c-.039-.191-.094-.48-.16-.863-.02.019-.168.203-.445.543a1.286 1.286 0 0 0-.321-.543l.031.543a1.544 1.544 0 0 1-.32-.543 27.888 27.888 0 0 0-.191-.641c-.043.235-.031.524.031.864.066.339.152.617.258.832v-.098c.168.109.308.246.414.418l.066-.352.129.543.254-.222.067.48c.082-.129.191-.191.316-.191.109 0 .172.086.195.254.02.129-.023.226-.129.289a.588.588 0 0 0-.226.222 1.4 1.4 0 0 0 .672.032z" transform="matrix(1.25 0 0 -1.25 0 33.812)"/><path style="stroke:#231f20;stroke-miterlimit:10;stroke-width:.4;fill:none" d="M10.363 17.285c.426.684.407 1.719-.062 3.106-.067.168-.043.285.062.351l-1.183.254c-.703.152-1.258.192-1.664.129-.77-.105-1.301-.5-1.602-1.184-.254-.66-.277-1.289-.062-1.886.277-.555.437-.942.48-1.153.254-.363.172-.629-.258-.8-.254-.082-.562-.094-.926-.032l-.449.16a.843.843 0 0 1-.062-.32c.019-.234.16-.363.414-.383.406-.023.824.043 1.25.192a.487.487 0 0 1-.16-.192c-.106-.191-.098-.406.031-.64.129-.235.301-.418.512-.543a.764.764 0 0 1 .289-.16l-.129.351c-.106.254-.16.457-.16.606.023.129.023.355 0 .671.043.282.277.407.703.387.875-.066 1.386-.074 1.539-.031.551.105 1.031.477 1.437 1.117z" transform="scale(1.25)"/><path style="fill-rule:evenodd;fill:#43853b" d="M8.922 16.088c-.137.481-.149.801-.043.961.133.188.547.399 1.242.641l.199.359c.215.293.586.508 1.121.641.504.133.93-.039 1.278-.519a1.81 1.81 0 0 0 .359-.762l.563-.121c.371-.133.504-.399.398-.797-.078-.348-.414-.574-1-.68-.668-.137-1.078-.297-1.238-.484-.188-.211-.453-.344-.801-.399-.348-.05-.547-.172-.602-.359-.078-.266-.304-.414-.679-.441a2.05 2.05 0 0 0-1 .199c-.239.109-.266.386-.078.844.214.531.304.839.281.917z" transform="matrix(1.25 0 0 -1.25 0 33.812)"/><path style="fill-rule:evenodd;fill:#51a147" d="M10.5 17.389c.008-.047.016-.093.02-.14v.16l-.02-.02zm-.898-.578-.122-.082c.133.055.332.133.598.242.18.102.32.242.422.418-.074.926.371 1.16 1.34.699 1.015-.503.933-.945-.242-1.32l-.118.242c-.082-.242-.292-.429-.64-.562-.028-.024-.055-.199-.082-.52-.024-.183-.172-.199-.438-.039-.054-.16-.242-.375-.562-.64-.344-.293-.598-.387-.758-.282-.188.11-.16.321.078.641.133.16.309.348.52.563-.133.078-.278.277-.438.597.16.082.309.094.442.043z" transform="matrix(1.25 0 0 -1.25 0 33.812)"/><path style="fill-rule:evenodd;fill:#eb8321" d="m10.52 13.331.32.398c.293.293.652.492 1.082.602.637.211 1.117.238 1.437.078.696-4.613.973-6.973.84-7.078-.105-.133-1.332 1.867-3.679 6z" transform="matrix(1.25 0 0 -1.25 0 33.812)"/><path style="fill-rule:evenodd;fill:#43853b" d="m11.238 14.128-.316 1.16 1 .562.359-1.519-1.043-.203z" transform="matrix(1.25 0 0 -1.25 0 33.812)"/><path style="fill-rule:evenodd;fill:#a35a17" d="m14.199 7.331-2.277 7 .758.117.679-.039.84-7.078z" transform="matrix(1.25 0 0 -1.25 0 33.812)"/><path style="stroke:#231f20;stroke-miterlimit:10;stroke-width:.4;fill:none" d="M8.922 10.961c.023.078-.067.387-.281.918-.188.453-.161.734.078.84.347.16.679.226 1 .203.375-.027.601-.176.679-.442.082-.187.282-.308.602-.359l.242.801.238-.043a1.86 1.86 0 0 0-.718.559l-.242.281c2.347 4.133 3.574 6.133 3.679 6 .137-.106-.144-2.465-.84-7.078-.238-.11-.613-.121-1.117-.043L12 11.559c.109-.051.508-.161 1.199-.321.508-.133.789-.359.844-.679.105-.399-.027-.664-.402-.801l-.559-.117a1.874 1.874 0 0 0-.359-.762c-.348-.481-.774-.652-1.282-.52-.535.133-.906.348-1.121.641l-.199.359c-.691.239-1.105.453-1.238.641-.11.16-.098.48.039.961z" transform="scale(1.25)"/><path style="fill-rule:evenodd;fill:#8c7b29" d="M18.16 11.768c.106.242.602.641 1.481 1.203.453.293.879.559 1.281.797l.32-2.64c-.453-.692-.961-1.25-1.519-1.68a75.5 75.5 0 0 0-1.364-1.238 31.806 31.806 0 0 0-.199 1.558c-.105 1.094-.105 1.762 0 2z" transform="matrix(1.25 0 0 -1.25 0 33.812)"/><path style="fill-rule:evenodd;fill:#91802a" d="M1.52 12.249v-.918c.027-.668.121-1.149.281-1.442.238-.426.64-.894 1.199-1.398l-2.441.277.281 3.563.68-.082z" transform="matrix(1.25 0 0 -1.25 0 33.812)"/></svg>