<svg xmlns="http://www.w3.org/2000/svg" viewBox="0 0 128 128" xml:space="preserve"><path fill="#FFF" d="m65.6 34.7 1.6 79.9H35l1.7-79.9c.1-3.8 3.3-6.8 7.1-6.8h14.7c3.8 0 7 3 7.1 6.8z"/><path fill="none" stroke="#3D3D3D" stroke-width="2" stroke-linecap="round" stroke-linejoin="round" stroke-miterlimit="10" d="m65.6 34.7 1.6 79.9H35l1.7-79.9c.1-3.8 3.3-6.8 7.1-6.8h14.7c3.8 0 7 3 7.1 6.8z"/><path fill="none" stroke="#3D3D3D" stroke-width="2" stroke-linejoin="round" stroke-miterlimit="10" d="M36 107h31"/><path fill="none" stroke="#3D3D3D" stroke-width="2" stroke-linecap="round" stroke-linejoin="round" stroke-miterlimit="10" d="M41 114v-7M46 114v-7M51 114v-7M56 114v-7M61 114v-7"/><path fill="#53AF80" d="M59 17.5V27H42v-9.5c0-1.9 2.5-3.5 4.5-3.5h8.7c1.8 0 3.8 1.5 3.8 3.5z"/><path fill="none" stroke="#3D3D3D" stroke-width="2" stroke-linecap="round" stroke-linejoin="round" stroke-miterlimit="10" d="M59 17.5V27H42v-9.5c0-1.9 2.5-3.5 4.5-3.5h8.7c1.8 0 3.8 1.5 3.8 3.5z"/><path fill="none" stroke="#3D3D3D" stroke-width="2" stroke-linejoin="round" stroke-miterlimit="10" d="M48 27v-9M53 27v-9"/><path fill="#8DCEA8" d="M45 41h12v52H45z"/><path fill="none" stroke="#3D3D3D" stroke-width="2" stroke-linejoin="round" stroke-miterlimit="10" d="M45 41h12v52H45z"/><path fill="#53AF80" d="M90 14h4v100h-4z"/><path fill="none" stroke="#3D3D3D" stroke-width="2" stroke-linecap="round" stroke-linejoin="round" stroke-miterlimit="10" d="M90 14h4v100h-4z"/><path fill="#FFF" d="M77 15h13v26H77z"/><path fill="none" stroke="#3D3D3D" stroke-width="2" stroke-linecap="round" stroke-linejoin="round" stroke-miterlimit="10" d="M77 15h13v26H77z"/><path fill="none" stroke="#3D3D3D" stroke-width="2" stroke-linecap="square" stroke-linejoin="round" stroke-miterlimit="10" d="M77 36h8M77 31h8M77 26h8M77 21h8"/></svg>