<svg xmlns="http://www.w3.org/2000/svg" xml:space="preserve" width="24" height="24"><path d="M8.169 8.844c.688 2.01 1.982 3.538 3.824 3.538 1.773 0 3.087-1.506 3.797-3.513 1.433-1.445 1.094-2.525.764-3.041C17.332 2.102 14.953 0 11.858 0c-5.55 0-4.582 6.08-4.582 6.08l.019.002c-.253.572-.329 1.534.874 2.762zm2.318-4.514-.405 1.509c1.981-.604 2.247-.936 2.559-1.163a7.45 7.45 0 0 0 .82-.691c.103.184.231.352.378.504.147.154.365-1.397.365-1.397s.547.942.623 1.247c.054.216.4 1.09.586 1.17-.07 2.885-1.364 5.9-3.42 5.9-1.915 0-3.169-2.615-3.389-5.305.526-.032 1.883-1.774 1.883-1.774zM13.933 20.109v.582c.096.006.268.016.499.016.685 0 1.869-.082 3.024-.545v-.607c-1.529.787-3.492.557-3.523.554z"/><path d="M21.95 16.997c-1.151-3.028-3.779-4.278-3.814-4.295l-2.911-1.065-1.283 3.117-1.313-1.598h-1.274l-1.313 1.598-1.283-3.117L5.9 12.688l-.035.015c-.036.016-2.665 1.266-3.815 4.294a8.061 8.061 0 0 0-.484 2.077c.292.354.604.693.93 1.018.35.345.719.67 1.104.976A13.446 13.446 0 0 0 11.991 24h.02c.227 0 .451-.006.676-.018h.015a13.442 13.442 0 0 0 7.7-2.916 13.435 13.435 0 0 0 2.034-1.993 8.156 8.156 0 0 0-.486-2.076zm-2.754 2.954c.03-1.008.041-2.293-.039-3.436l-.971.067c.098 1.397.057 3.024.012 4.054a11.816 11.816 0 0 1-5.287 1.703l-.365-6.398h-1.107l-.365 6.398a11.827 11.827 0 0 1-5.268-1.701c-.049-1.01-.096-2.609-.004-4.025l-.971-.063c-.074 1.151-.061 2.412-.027 3.403a11.96 11.96 0 0 1-2.053-1.994c.809-2.999 3.254-4.246 3.504-4.366l1.961-.72 1.546 3.754 1.31-1.593.332.472h1.179l.331-.471 1.309 1.592 1.547-3.756 1.976.723c.257.123 2.698 1.371 3.505 4.365a12.032 12.032 0 0 1-2.055 1.992z"/></svg>